<svg width="45" height="45" viewBox="0 0 45 45" fill="none" xmlns="http://www.w3.org/2000/svg">
<path d="M27.2818 36.7236L38.2277 25.7777L35.0924 22.6974L27.2818 30.5081L24.2015 27.3728L21.0662 30.5081L27.2818 36.7236ZM11.7705 29.298H18.371V24.8976H11.7705V29.298ZM11.7705 22.6974H27.1717V18.297H11.7705V22.6974ZM11.7705 16.0968H27.1717V11.6965H11.7705V16.0968ZM22.7714 44.6992C19.7278 44.6992 16.8675 44.1213 14.1907 42.9655C11.5138 41.8111 9.18524 40.2439 7.20507 38.2637C5.22491 36.2835 3.65764 33.955 2.50328 31.2781C1.34745 28.6012 0.769531 25.741 0.769531 22.6974C0.769531 19.6538 1.34745 16.7936 2.50328 14.1167C3.65764 11.4398 5.22491 9.11126 7.20507 7.1311C9.18524 5.15093 11.5138 3.58293 14.1907 2.4271C16.8675 1.27274 19.7278 0.695557 22.7714 0.695557C25.815 0.695557 28.6752 1.27274 31.3521 2.4271C34.029 3.58293 36.3575 5.15093 38.3377 7.1311C40.3178 9.11126 41.8851 11.4398 43.0395 14.1167C44.1953 16.7936 44.7732 19.6538 44.7732 22.6974C44.7732 25.741 44.1953 28.6012 43.0395 31.2781C41.8851 33.955 40.3178 36.2835 38.3377 38.2637C36.3575 40.2439 34.029 41.8111 31.3521 42.9655C28.6752 44.1213 25.815 44.6992 22.7714 44.6992ZM22.7714 40.2989C27.6851 40.2989 31.8471 38.5937 35.2574 35.1834C38.6677 31.7732 40.3728 27.6111 40.3728 22.6974C40.3728 17.7837 38.6677 13.6216 35.2574 10.2114C31.8471 6.80107 27.6851 5.09593 22.7714 5.09593C17.8576 5.09593 13.6956 6.80107 10.2853 10.2114C6.87504 13.6216 5.1699 17.7837 5.1699 22.6974C5.1699 27.6111 6.87504 31.7732 10.2853 35.1834C13.6956 38.5937 17.8576 40.2989 22.7714 40.2989Z" fill="#8ECAE6"/>
</svg>
