<svg width="13" height="13" viewBox="0 0 13 13" fill="none" xmlns="http://www.w3.org/2000/svg">
<path fill-rule="evenodd" clip-rule="evenodd" d="M1.01554 2.53898H11.171V3.43466L6.09326 5.97352L1.01554 3.43466V2.53898ZM0 2.53892C3.34193e-05 1.97808 0.454695 1.52344 1.01554 1.52344H11.171C11.7318 1.52344 12.1865 1.97808 12.1865 2.53892C12.1865 2.53894 12.1865 2.53896 12.1865 2.53898V4.0623V9.13996C12.1865 9.98126 11.5045 10.6633 10.6632 10.6633H1.52332C0.682011 10.6633 0 9.98126 0 9.13996V4.0623V2.53898M1.01554 4.57007V9.13996C1.01554 9.42039 1.24288 9.64773 1.52332 9.64773H10.6632C10.9436 9.64773 11.171 9.42039 11.171 9.13996V4.57007L6.09326 7.10893L1.01554 4.57007Z" fill="#F5841F"/>
</svg>
