<svg width="126" height="40" viewBox="0 0 126 40" fill="none" xmlns="http://www.w3.org/2000/svg">
<path d="M89.3613 37.225C90.1203 37.225 90.5693 36.65 90.5693 35.751C90.5693 34.819 90.0873 34.277 89.3773 34.277C88.9713 34.277 88.6893 34.457 88.4783 34.743H88.4683V33.27H88.0283V37.143H88.4683V36.775H88.4783C88.7063 37.089 88.9823 37.225 89.3613 37.225ZM89.3293 36.856C88.7333 36.856 88.4403 36.385 88.4403 35.756C88.4403 35.15 88.7223 34.651 89.3343 34.651C89.8653 34.651 90.1203 35.128 90.1203 35.756C90.1203 36.39 89.8653 36.856 89.3293 36.856ZM91.3123 38.07C91.6533 38.07 91.8703 37.95 92.0973 37.37L93.2953 34.342H92.8293L92.1893 36.087C92.1033 36.32 92.0053 36.634 92.0053 36.634H91.9953C91.9953 36.634 91.8913 36.32 91.8053 36.087L91.1443 34.342H90.6673L91.7613 37.062L91.6533 37.338C91.5453 37.609 91.4203 37.68 91.2363 37.68C91.1335 37.6852 91.0311 37.6646 90.9383 37.62H90.9163V38.01C91.0363 38.059 91.1443 38.07 91.3123 38.07ZM94.4183 37.143H95.1553V33.27H94.4183V37.143ZM96.9573 37.225C97.8183 37.225 98.4093 36.585 98.4093 35.756C98.4093 34.927 97.8193 34.288 96.9573 34.288C96.0963 34.288 95.5053 34.928 95.5053 35.756C95.5053 36.586 96.0953 37.225 96.9573 37.225ZM96.9573 36.661C96.5023 36.661 96.2533 36.298 96.2533 35.756C96.2533 35.215 96.5023 34.846 96.9573 34.846C97.4073 34.846 97.6613 35.215 97.6613 35.756C97.6613 36.298 97.4073 36.661 96.9573 36.661ZM99.9763 38.091C100.388 38.091 100.745 37.994 100.978 37.777C101.184 37.587 101.309 37.322 101.309 36.932V34.364H100.599V34.657H100.588C100.42 34.424 100.166 34.288 99.8183 34.288C99.1153 34.288 98.6163 34.819 98.6163 35.648C98.6163 36.488 99.2233 36.975 99.8413 36.975C100.193 36.975 100.404 36.835 100.566 36.65H100.583V36.954C100.583 37.333 100.383 37.534 99.9653 37.534C99.6243 37.534 99.4673 37.398 99.4073 37.224H98.6763C98.7513 37.766 99.2173 38.091 99.9763 38.091ZM99.9663 36.385C99.5863 36.385 99.3363 36.109 99.3363 35.637C99.3363 35.171 99.5863 34.879 99.9603 34.879C100.404 34.879 100.621 35.225 100.621 35.632C100.621 36.044 100.431 36.385 99.9653 36.385H99.9663ZM103.1 37.225C103.961 37.225 104.552 36.585 104.552 35.756C104.552 34.927 103.961 34.288 103.1 34.288C102.238 34.288 101.648 34.928 101.648 35.756C101.648 36.586 102.238 37.225 103.1 37.225ZM103.1 36.661C102.645 36.661 102.395 36.298 102.395 35.756C102.395 35.215 102.645 34.846 103.1 34.846C103.549 34.846 103.804 35.215 103.804 35.756C103.804 36.298 103.549 36.661 103.1 36.661ZM104.894 37.143H105.631V34.364H104.894V37.144V37.143ZM104.894 33.931H105.631V33.27H104.894V33.93V33.931ZM106.106 38.053H106.843V36.83H106.853C107.011 37.069 107.265 37.226 107.655 37.226C108.37 37.226 108.858 36.656 108.858 35.757C108.858 34.89 108.387 34.289 107.65 34.289C107.49 34.2864 107.331 34.3237 107.188 34.3975C107.045 34.4713 106.923 34.5794 106.832 34.712H106.816V34.365H106.106V38.055V38.053ZM107.498 36.613C107.059 36.613 106.826 36.282 106.826 35.778C106.826 35.28 107.011 34.884 107.471 34.884C107.926 34.884 108.11 35.252 108.11 35.778C108.11 36.304 107.872 36.612 107.498 36.612V36.613ZM110.328 37.225C111.021 37.225 111.498 36.889 111.498 36.331C111.498 35.681 110.983 35.551 110.517 35.453C110.122 35.372 109.754 35.35 109.754 35.112C109.754 34.912 109.943 34.802 110.23 34.802C110.545 34.802 110.734 34.912 110.767 35.209H111.433C111.379 34.651 110.973 34.289 110.241 34.289C109.607 34.289 109.109 34.575 109.109 35.177C109.109 35.783 109.596 35.919 110.095 36.017C110.474 36.092 110.826 36.119 110.826 36.385C110.826 36.58 110.642 36.705 110.317 36.705C109.987 36.705 109.759 36.564 109.71 36.244H109.028C109.071 36.834 109.521 37.224 110.328 37.224V37.225ZM114.296 37.143V34.364H113.559V35.968C113.559 36.336 113.347 36.596 113.001 36.596C112.687 36.596 112.54 36.417 112.54 36.092V34.364H111.809V36.217C111.809 36.824 112.156 37.219 112.773 37.219C113.163 37.219 113.38 37.073 113.57 36.819H113.586V37.143H114.296ZM114.772 37.143H115.509V35.53C115.509 35.161 115.709 34.923 116.007 34.923C116.278 34.923 116.435 35.086 116.435 35.4V37.144H117.172V35.53C117.172 35.161 117.362 34.923 117.671 34.923C117.942 34.923 118.099 35.086 118.099 35.4V37.144H118.836V35.275C118.836 34.668 118.505 34.289 117.92 34.289C117.568 34.289 117.275 34.473 117.086 34.777H117.075C117.009 34.6294 116.9 34.5046 116.763 34.4178C116.626 34.3311 116.467 34.2863 116.305 34.289C116.143 34.2849 115.982 34.3245 115.84 34.4037C115.698 34.4828 115.58 34.5987 115.498 34.739H115.482V34.365H114.772V37.145V37.143Z" fill="#E5708C"/>
<path d="M118.981 2.14894C118.981 0.965938 119.94 0.00593848 121.123 0.00593848H122.552C123.12 0.00593848 123.665 0.231718 124.067 0.633609C124.469 1.0355 124.695 1.58058 124.695 2.14894C124.695 2.7173 124.469 3.26238 124.067 3.66427C123.665 4.06616 123.12 4.29194 122.552 4.29194H121.123C120.841 4.29194 120.563 4.2365 120.303 4.12879C120.043 4.02108 119.807 3.86322 119.608 3.66421C119.409 3.4652 119.251 3.22895 119.143 2.96895C119.036 2.70896 118.98 2.43031 118.981 2.14894ZM58.9896 14.2899C58.9896 22.1779 52.5956 28.5729 44.7066 28.5729C36.8186 28.5729 30.4236 22.1779 30.4236 14.2899C30.4236 6.39994 36.8186 0.00693848 44.7066 0.00693848C52.5956 0.00693848 58.9896 6.39994 58.9896 14.2899ZM27.6376 14.2189C28.4276 14.2189 29.0736 14.8589 28.9946 15.6449C28.7246 18.3348 27.6968 20.8927 26.0307 23.0216C24.3645 25.1504 22.1285 26.7627 19.5823 27.6711C17.0361 28.5794 14.2845 28.7466 11.6471 28.153C9.00973 27.5595 6.59494 26.2297 4.6834 24.3181C2.77185 22.4066 1.44204 19.9918 0.848505 17.3544C0.254975 14.7171 0.422101 11.9654 1.33046 9.41924C2.23882 6.87308 3.85111 4.63699 5.97996 2.97085C8.1088 1.3047 10.6668 0.276913 13.3566 0.00693848C14.1416 -0.0730615 14.7826 0.574939 14.7826 1.36294V12.7899C14.7826 13.5799 15.4226 14.2189 16.2116 14.2189H27.6376ZM78.9866 31.4299C80.123 31.4299 81.213 31.8814 82.0165 32.685C82.8201 33.4886 83.2716 34.5785 83.2716 35.7149C83.2716 36.8514 82.8201 37.9413 82.0165 38.7449C81.213 39.5485 80.123 39.9999 78.9866 39.9999H71.8456C70.7091 39.9999 69.6192 39.5485 68.8156 38.7449C68.012 37.9413 67.5606 36.8514 67.5606 35.7149C67.5606 34.5785 68.012 33.4886 68.8156 32.685C69.6192 31.8814 70.7091 31.4299 71.8456 31.4299H78.9866ZM74.7016 28.5729C82.5906 28.5729 88.9856 22.1779 88.9856 14.2899C88.989 11.8669 88.3732 9.48315 87.1966 7.36494L89.5566 5.00494C89.8284 4.73297 90.044 4.41012 90.1911 4.05483C90.3382 3.69954 90.4138 3.31876 90.4137 2.93423C90.4136 2.5497 90.3378 2.16896 90.1906 1.81374C90.0433 1.45852 89.8276 1.13577 89.5556 0.863938C89.2836 0.592102 88.9608 0.376496 88.6055 0.229429C88.2502 0.0823627 87.8694 0.00671637 87.4849 0.00680924C87.1004 0.0069021 86.7196 0.0827323 86.3644 0.22997C86.0092 0.377208 85.6864 0.592971 85.4146 0.864938L83.3546 2.92494C80.8694 1.02684 77.8278 0.000906653 74.7006 0.00593848C66.8136 0.00693848 60.4196 6.39994 60.4196 14.2899C60.4196 22.1779 66.8146 28.5729 74.7026 28.5729H74.7016ZM118.981 14.2899C118.981 22.1779 112.586 28.5729 104.697 28.5729C96.8086 28.5729 90.4136 22.1779 90.4136 14.2899C90.4136 6.39994 96.8086 0.00693848 104.697 0.00693848C112.586 0.00693848 118.981 6.40094 118.981 14.2899Z" fill="url(#paint0_linear_204_405)"/>
<defs>
<linearGradient id="paint0_linear_204_405" x1="0.499598" y1="15.9999" x2="119.5" y2="15.9999" gradientUnits="userSpaceOnUse">
<stop stop-color="#64C2DB"/>
<stop offset="0.307" stop-color="#7476ED"/>
<stop offset="0.604" stop-color="#C994DF"/>
<stop offset="1" stop-color="#E56F8C"/>
</linearGradient>
</defs>
</svg>
