<svg width="171" height="41" viewBox="0 0 171 41" fill="none" xmlns="http://www.w3.org/2000/svg">
<g clip-path="url(#clip0_203_302)">
<path d="M52.3604 28.138H64.3124V24.538H56.6084V10.978H52.3604V28.138Z" fill="#340E0E"/>
<path d="M71.3928 25.7379C69.6888 25.7379 68.8008 24.2499 68.8008 22.0179C68.8008 19.7859 69.6888 18.2739 71.3928 18.2739C73.0968 18.2739 74.0088 19.7859 74.0088 22.0179C74.0088 24.2499 73.0968 25.7379 71.3928 25.7379ZM71.4168 28.5219C75.3768 28.5219 77.9688 25.7139 77.9688 22.0179C77.9688 18.3219 75.3768 15.5139 71.4168 15.5139C67.4808 15.5139 64.8408 18.3219 64.8408 22.0179C64.8408 25.7139 67.4808 28.5219 71.4168 28.5219Z" fill="#340E0E"/>
<path d="M84.8236 32.386C86.6476 32.386 88.2556 31.978 89.3356 31.018C90.3196 30.13 90.9676 28.786 90.9676 26.938V15.85H87.2236V17.17H87.1756C86.4556 16.138 85.3516 15.49 83.7196 15.49C80.6716 15.49 78.5596 18.034 78.5596 21.634C78.5596 25.402 81.1276 27.466 83.8876 27.466C85.3756 27.466 86.3116 26.866 87.0316 26.05H87.1276V27.274C87.1276 28.762 86.4316 29.626 84.7756 29.626C83.4796 29.626 82.8316 29.074 82.6156 28.426H78.8236C79.2076 30.994 81.4396 32.386 84.8236 32.386ZM84.7996 24.562C83.3356 24.562 82.3756 23.362 82.3756 21.514C82.3756 19.642 83.3356 18.442 84.7996 18.442C86.4316 18.442 87.2956 19.834 87.2956 21.49C87.2956 23.218 86.5036 24.562 84.7996 24.562Z" fill="#340E0E"/>
<path d="M98.6663 25.7379C96.9623 25.7379 96.0743 24.2499 96.0743 22.0179C96.0743 19.7859 96.9623 18.2739 98.6663 18.2739C100.37 18.2739 101.282 19.7859 101.282 22.0179C101.282 24.2499 100.37 25.7379 98.6663 25.7379ZM98.6903 28.5219C102.65 28.5219 105.242 25.7139 105.242 22.0179C105.242 18.3219 102.65 15.5139 98.6903 15.5139C94.7543 15.5139 92.1143 18.3219 92.1143 22.0179C92.1143 25.7139 94.7543 28.5219 98.6903 28.5219Z" fill="#340E0E"/>
<path d="M106.384 28.138H110.296V15.85H106.384V28.138ZM106.384 14.146H110.296V10.978H106.384V14.146Z" fill="#340E0E"/>
<path d="M111.994 32.194H115.906V26.866H115.954C116.722 27.898 117.85 28.522 119.434 28.522C122.65 28.522 124.786 25.978 124.786 21.994C124.786 18.298 122.794 15.49 119.53 15.49C117.85 15.49 116.65 16.234 115.81 17.338H115.738V15.85H111.994V32.194ZM118.426 25.498C116.746 25.498 115.786 24.13 115.786 22.138C115.786 20.146 116.65 18.634 118.354 18.634C120.034 18.634 120.826 20.026 120.826 22.138C120.826 24.226 119.914 25.498 118.426 25.498Z" fill="#340E0E"/>
<path d="M131.155 28.522C134.371 28.522 136.747 27.13 136.747 24.442C136.747 21.298 134.203 20.746 132.043 20.386C130.483 20.098 129.091 19.978 129.091 19.114C129.091 18.346 129.835 17.986 130.795 17.986C131.875 17.986 132.619 18.322 132.763 19.426H136.363C136.171 17.002 134.299 15.49 130.819 15.49C127.915 15.49 125.515 16.834 125.515 19.426C125.515 22.306 127.795 22.882 129.931 23.242C131.563 23.53 133.051 23.65 133.051 24.754C133.051 25.546 132.307 25.978 131.131 25.978C129.835 25.978 129.019 25.378 128.875 24.154H125.179C125.299 26.866 127.555 28.522 131.155 28.522Z" fill="#340E0E"/>
<path d="M142.061 28.4981C143.765 28.4981 144.845 27.8261 145.733 26.6261H145.805V28.1381H149.549V15.8501H145.637V22.7141C145.637 24.1781 144.821 25.1861 143.477 25.1861C142.229 25.1861 141.629 24.4421 141.629 23.0981V15.8501H137.741V23.9141C137.741 26.6501 139.229 28.4981 142.061 28.4981Z" fill="#340E0E"/>
<path d="M151.25 28.138H155.162V21.25C155.162 19.786 155.882 18.754 157.106 18.754C158.282 18.754 158.834 19.522 158.834 20.842V28.138H162.746V21.25C162.746 19.786 163.442 18.754 164.69 18.754C165.866 18.754 166.418 19.522 166.418 20.842V28.138H170.33V20.146C170.33 17.386 168.938 15.49 166.154 15.49C164.57 15.49 163.25 16.162 162.29 17.65H162.242C161.618 16.33 160.394 15.49 158.786 15.49C157.01 15.49 155.834 16.33 155.066 17.602H154.994V15.85H151.25V28.138Z" fill="#340E0E"/>
<path fill-rule="evenodd" clip-rule="evenodd" d="M21.1836 40.1379C32.2293 40.1379 41.1836 31.1836 41.1836 20.1379C41.1836 9.09225 32.2293 0.137939 21.1836 0.137939C10.1379 0.137939 1.18359 9.09225 1.18359 20.1379C1.18359 31.1836 10.1379 40.1379 21.1836 40.1379ZM27.4229 9.45478C27.7266 8.37599 26.6797 7.73807 25.7236 8.41924L12.3767 17.9275C11.3398 18.6662 11.5029 20.1379 12.6217 20.1379H16.1363V20.1107H22.9861L17.4048 22.08L14.9443 30.8211C14.6406 31.8999 15.6874 32.5378 16.6436 31.8566L29.9905 22.3484C31.0274 21.6097 30.8642 20.1379 29.7455 20.1379H24.4157L27.4229 9.45478Z" fill="#F5841F"/>
</g>
<defs>
<clipPath id="clip0_203_302">
<rect width="170" height="41" fill="white" transform="translate(0.5)"/>
</clipPath>
</defs>
</svg>
