<svg width="148" height="46" viewBox="0 0 148 46" fill="none" xmlns="http://www.w3.org/2000/svg">
<path fill-rule="evenodd" clip-rule="evenodd" d="M73.1753 7.40747C74.5631 6.01977 76.8132 6.01977 78.201 7.40747C79.5888 8.79527 79.5888 11.0453 78.201 12.4331L69.7401 20.894C67.3109 17.6384 67.5747 13.0082 70.5317 10.0512L73.1753 7.40747Z" fill="#4F9E91"/>
<path fill-rule="evenodd" clip-rule="evenodd" d="M85.2713 26.4967C86.6593 27.8844 86.6593 30.1345 85.2713 31.5222C83.8843 32.91 81.6339 32.91 80.2461 31.5222L71.7852 23.0614C75.0408 20.6322 79.671 20.896 82.628 23.853L85.2713 26.4967Z" fill="#EBE1C5"/>
<path fill-rule="evenodd" clip-rule="evenodd" d="M66.1826 38.5924C64.7949 39.9802 62.5448 39.9802 61.1571 38.5924C59.7693 37.2046 59.7693 34.9546 61.1571 33.5668L69.6179 25.106C72.0471 28.3616 71.7833 32.9918 68.8263 35.9487L66.1826 38.5924Z" fill="#EBCC6E"/>
<path fill-rule="evenodd" clip-rule="evenodd" d="M54.0867 19.5032C52.6989 18.1154 52.6989 15.8654 54.0867 14.4776C55.4745 13.0898 57.7245 13.0898 59.1123 14.4776L67.5732 22.9385C64.3176 25.3677 59.6874 25.1038 56.7305 22.1469L54.0867 19.5032Z" fill="#ED834E"/>
<path fill-rule="evenodd" clip-rule="evenodd" d="M71.2852 37.5563C73.3315 35.2811 74.2826 32.3698 74.1383 29.5034L78.2017 33.5668C78.2118 33.5769 78.222 33.587 78.2322 33.5971V36.4981C78.2322 38.4607 76.6412 40.0517 74.6786 40.0517C73.0845 40.0517 71.7356 39.0021 71.2852 37.5563Z" fill="#ED834E"/>
<path fill-rule="evenodd" clip-rule="evenodd" d="M55.1224 24.6057C57.3975 26.6521 60.3088 27.6032 63.1752 27.4589L59.1119 31.5223C59.1017 31.5324 59.0916 31.5426 59.0816 31.5527H56.1806C54.218 31.5528 52.627 29.9617 52.627 27.9991C52.627 26.4051 53.6766 25.0561 55.1224 24.6057Z" fill="#4F9E91"/>
<path fill-rule="evenodd" clip-rule="evenodd" d="M84.2352 21.3941C81.9603 19.3477 79.049 18.3966 76.1826 18.5408L80.2459 14.4775C80.2561 14.4674 80.2661 14.4572 80.2762 14.447H83.1773C85.1402 14.447 86.7312 16.0381 86.7312 18.0007C86.7312 19.5948 85.6812 20.9437 84.2352 21.3941Z" fill="#EBCC6E"/>
<path fill-rule="evenodd" clip-rule="evenodd" d="M68.073 8.44374C66.0266 10.7189 65.0756 13.6302 65.2198 16.4967L61.1565 12.4333C61.1463 12.4232 61.1362 12.4131 61.126 12.403V9.50194C61.126 7.53934 62.717 5.94824 64.6796 5.94824C66.2737 5.94824 67.6226 6.99794 68.073 8.44374Z" fill="#EBE1C5"/>
<path fill-rule="evenodd" clip-rule="evenodd" d="M64.68 3.05713C61.1206 3.05713 58.2351 5.94263 58.2351 9.50203V10.7555C56.0937 10.196 53.7205 10.7552 52.0424 12.4333C49.5255 14.9502 49.5255 19.0309 52.0424 21.5478L52.9287 22.4341C51.0189 23.5527 49.7363 25.6262 49.7363 27.9993C49.7363 31.5587 52.6218 34.4442 56.1812 34.4442H57.4346C56.8751 36.5856 57.4343 38.9588 59.1124 40.6368C61.6293 43.1537 65.71 43.1537 68.2269 40.6368L70.8705 37.9932C73.2026 35.6611 74.2918 32.5567 74.1381 29.5033L78.2016 33.5667C80.7185 36.0836 84.7993 36.0836 87.3163 33.5667C89.8333 31.0498 89.8333 26.9691 87.3163 24.4523L86.4303 23.5661C88.3393 22.4475 89.6223 20.374 89.6223 18.0009C89.6223 14.4415 86.7363 11.556 83.1773 11.556H81.9238C82.4834 9.41453 81.9241 7.04133 80.246 5.36323C77.7292 2.84633 73.6485 2.84633 71.1316 5.36323L68.4879 8.00693C66.1558 10.339 65.0666 13.4433 65.2203 16.4967L61.1569 12.4333C61.1467 12.4232 61.1366 12.4131 61.1264 12.403V9.50203C61.1264 7.53943 62.7174 5.94843 64.68 5.94843C66.2741 5.94843 67.623 6.99803 68.0734 8.44383C68.2069 8.29543 68.345 8.14973 68.4878 8.00693L70.2452 6.24953C69.1266 4.33973 67.0531 3.05713 64.68 3.05713ZM80.2763 14.4473C80.2662 14.4574 80.2562 14.4676 80.246 14.4777L76.1827 18.541C79.0492 18.3968 81.9604 19.3478 84.2353 21.3943C85.6813 20.9439 86.7313 19.5949 86.7313 18.0009C86.7313 16.0383 85.1403 14.4473 83.1773 14.4473H80.2763ZM59.082 31.5529C59.0921 31.5427 59.1022 31.5325 59.1124 31.5224L63.1757 27.459C60.3093 27.6033 57.3981 26.6522 55.123 24.6059C53.6772 25.0563 52.6275 26.4052 52.6275 27.9993C52.6275 29.9619 54.2186 31.5529 56.1812 31.5529H59.082ZM55.0122 24.5049C54.9019 24.403 54.7932 24.2985 54.6861 24.1914V24.1915C54.7932 24.2986 54.9019 24.403 55.0122 24.5049ZM74.6785 42.9431C72.3053 42.9431 70.2318 41.6604 69.1132 39.7506L70.8705 37.9932C71.0134 37.8504 71.1515 37.7047 71.285 37.5563C71.7354 39.0021 73.0843 40.0518 74.6785 40.0518C76.6411 40.0518 78.2321 38.4608 78.2321 36.4982V33.5972C79.0649 34.4191 80.0659 34.9683 81.1234 35.2446V36.4982C81.1234 40.0576 78.2379 42.9431 74.6785 42.9431ZM78.2016 7.40763C76.8138 6.01993 74.5638 6.01993 73.176 7.40763L70.5323 10.0513C67.5754 13.0083 67.3115 17.6385 69.7407 20.8941L78.2016 12.4332C79.5894 11.0454 79.5894 8.79543 78.2016 7.40763ZM85.2713 31.5223C86.6593 30.1345 86.6593 27.8845 85.2713 26.4967L82.6279 23.853C79.671 20.8961 75.0407 20.6322 71.7851 23.0614L80.246 31.5223C81.6338 32.9101 83.8843 32.9101 85.2713 31.5223ZM66.1824 38.5924C64.7946 39.9802 62.5446 39.9802 61.1568 38.5924C59.7691 37.2046 59.7691 34.9546 61.1568 33.5668L69.6177 25.1059C72.0469 28.3615 71.783 32.9918 68.8261 35.9487L66.1824 38.5924ZM54.0868 14.4777C52.6991 15.8655 52.6991 18.1155 54.0868 19.5033L56.7305 22.147C59.6875 25.1039 64.3177 25.3678 67.5733 22.9386L59.1124 14.4777C57.7246 13.09 55.4746 13.09 54.0868 14.4777Z" fill="#3D3A2C"/>
<path d="M2.03223 16.0898H5.19283V25.911H10.6212V28.5716H2.03223V16.0898Z" fill="#3D3A2C"/>
<path d="M16.3598 28.8396C15.3003 28.8396 14.3717 28.6491 13.5741 28.2682C12.7765 27.8753 12.1575 27.3396 11.717 26.6611C11.2885 25.9706 11.0742 25.179 11.0742 24.2861C11.0742 23.3933 11.2885 22.6076 11.717 21.9291C12.1575 21.2386 12.7765 20.7029 13.5741 20.322C14.3717 19.9291 15.3003 19.7327 16.3598 19.7327C17.4193 19.7327 18.3478 19.9291 19.1454 20.322C19.943 20.7029 20.5561 21.2386 20.9846 21.9291C21.4251 22.6076 21.6453 23.3933 21.6453 24.2861C21.6453 25.179 21.4251 25.9706 20.9846 26.6611C20.5561 27.3396 19.943 27.8753 19.1454 28.2682C18.3478 28.6491 17.4193 28.8396 16.3598 28.8396ZM16.3598 26.3932C16.9907 26.3932 17.4907 26.2087 17.8597 25.8397C18.2407 25.4587 18.4311 24.9409 18.4311 24.2861C18.4311 23.6314 18.2407 23.1195 17.8597 22.7505C17.4907 22.3695 16.9907 22.1791 16.3598 22.1791C15.7288 22.1791 15.2229 22.3695 14.842 22.7505C14.4729 23.1195 14.2884 23.6314 14.2884 24.2861C14.2884 24.9409 14.4729 25.4587 14.842 25.8397C15.2229 26.2087 15.7288 26.3932 16.3598 26.3932Z" fill="#3D3A2C"/>
<path d="M27.549 32.6788C26.9776 32.6788 26.4002 32.6252 25.8169 32.5181C25.2455 32.4109 24.7513 32.2681 24.3347 32.0895V29.911C25.2751 30.3157 26.3466 30.5181 27.549 30.5181C28.418 30.5181 29.043 30.3395 29.4239 29.9824C29.8168 29.6253 30.0131 29.1015 30.0131 28.411V27.8932C29.6679 28.1908 29.2393 28.4229 28.7274 28.5896C28.2274 28.7563 27.6918 28.8396 27.1203 28.8396C26.2156 28.8396 25.4181 28.6491 24.7276 28.2682C24.0372 27.8872 23.4954 27.3515 23.1026 26.6611C22.7216 25.9706 22.5312 25.179 22.5312 24.2861C22.5312 23.3814 22.7216 22.5838 23.1026 21.8934C23.4835 21.2029 24.0192 20.6731 24.7097 20.3041C25.4001 19.9232 26.1919 19.7327 27.0847 19.7327C28.3109 19.7327 29.3227 20.1077 30.1203 20.8577V20.0005H33.156V27.9825C33.156 29.4705 32.6976 30.6253 31.781 31.4467C30.8763 32.2681 29.4656 32.6788 27.549 32.6788ZM27.906 26.4111C28.3941 26.4111 28.8287 26.2861 29.2096 26.0361C29.5906 25.7861 29.8583 25.4528 30.0131 25.0361V23.5362C29.8464 23.1195 29.5726 22.7921 29.1917 22.554C28.8107 22.3041 28.3822 22.1791 27.906 22.1791C27.2632 22.1791 26.7454 22.3695 26.3526 22.7505C25.9597 23.1195 25.7633 23.6254 25.7633 24.2683C25.7633 24.923 25.9597 25.4468 26.3526 25.8397C26.7454 26.2206 27.2632 26.4111 27.906 26.4111Z" fill="#3D3A2C"/>
<path d="M39.2387 28.8396C38.1792 28.8396 37.2507 28.6491 36.4531 28.2682C35.6555 27.8753 35.0364 27.3396 34.596 26.6611C34.1674 25.9706 33.9531 25.179 33.9531 24.2861C33.9531 23.3933 34.1674 22.6076 34.596 21.9291C35.0364 21.2386 35.6555 20.7029 36.4531 20.322C37.2507 19.9291 38.1792 19.7327 39.2387 19.7327C40.2982 19.7327 41.2267 19.9291 42.0243 20.322C42.8219 20.7029 43.435 21.2386 43.8636 21.9291C44.304 22.6076 44.5243 23.3933 44.5243 24.2861C44.5243 25.179 44.304 25.9706 43.8636 26.6611C43.435 27.3396 42.8219 27.8753 42.0243 28.2682C41.2267 28.6491 40.2982 28.8396 39.2387 28.8396ZM39.2387 26.3932C39.8696 26.3932 40.3696 26.2087 40.7387 25.8397C41.1196 25.4587 41.3101 24.9409 41.3101 24.2861C41.3101 23.6314 41.1196 23.1195 40.7387 22.7505C40.3696 22.3695 39.8696 22.1791 39.2387 22.1791C38.6078 22.1791 38.1018 22.3695 37.7209 22.7505C37.3518 23.1195 37.1673 23.6314 37.1673 24.2861C37.1673 24.9409 37.3518 25.4587 37.7209 25.8397C38.1018 26.2087 38.6078 26.3932 39.2387 26.3932Z" fill="#3D3A2C"/>
<path d="M94.9316 16.0898H98.0926V28.5716H94.9316V16.0898Z" fill="#3D3A2C"/>
<path d="M99.6934 20.0005H102.729V20.8577C103.526 20.1077 104.538 19.7327 105.764 19.7327C106.657 19.7327 107.449 19.9232 108.139 20.3041C108.83 20.6731 109.365 21.2029 109.746 21.8934C110.127 22.5719 110.318 23.3636 110.318 24.2683C110.318 25.1611 110.127 25.9587 109.746 26.6611C109.365 27.3515 108.83 27.8872 108.139 28.2682C107.461 28.6491 106.669 28.8396 105.764 28.8396C105.193 28.8396 104.645 28.7503 104.122 28.5717C103.61 28.4051 103.181 28.1729 102.836 27.8753V32.4823H99.6934V20.0005ZM104.943 26.3932C105.586 26.3932 106.104 26.2028 106.496 25.8218C106.889 25.4409 107.086 24.923 107.086 24.2683C107.086 23.6135 106.889 23.1017 106.496 22.7326C106.104 22.3517 105.586 22.1612 104.943 22.1612C104.467 22.1612 104.038 22.2862 103.657 22.5362C103.276 22.7743 103.003 23.1017 102.836 23.5183V25.0361C103.003 25.4528 103.276 25.7861 103.657 26.0361C104.038 26.2742 104.467 26.3932 104.943 26.3932Z" fill="#3D3A2C"/>
<path d="M115.003 28.8396C114.313 28.8396 113.593 28.7682 112.843 28.6253C112.093 28.4944 111.497 28.3039 111.057 28.0539V25.7504C111.545 26.0361 112.128 26.2742 112.807 26.4647C113.497 26.6432 114.128 26.7325 114.7 26.7325C115.116 26.7325 115.42 26.7027 115.61 26.6432C115.801 26.5837 115.896 26.4647 115.896 26.2861C115.896 26.1432 115.831 26.0301 115.7 25.9468C115.581 25.8516 115.354 25.7563 115.021 25.6611C114.7 25.554 114.325 25.4409 113.896 25.3218C113.17 25.1075 112.599 24.8873 112.182 24.6611C111.765 24.4349 111.456 24.1492 111.253 23.804C111.051 23.4588 110.95 23.0243 110.95 22.5005C110.95 21.5719 111.313 20.8815 112.039 20.4291C112.777 19.9648 113.783 19.7327 115.057 19.7327C115.676 19.7327 116.325 19.7982 117.003 19.9291C117.694 20.0601 118.211 20.2327 118.557 20.447V22.7148C118.2 22.4767 117.723 22.2802 117.128 22.1255C116.545 21.9707 115.997 21.8934 115.485 21.8934C115.081 21.8934 114.765 21.935 114.539 22.0183C114.313 22.0898 114.2 22.2207 114.2 22.4112C114.2 22.5898 114.313 22.7267 114.539 22.8219C114.765 22.9171 115.17 23.0362 115.753 23.179C116.134 23.2743 116.295 23.3159 116.235 23.304C116.997 23.5064 117.586 23.7326 118.003 23.9826C118.42 24.2326 118.711 24.5302 118.878 24.8754C119.057 25.2087 119.146 25.6373 119.146 26.1611C119.146 26.9825 118.789 27.6372 118.075 28.1253C117.372 28.6015 116.348 28.8396 115.003 28.8396Z" fill="#3D3A2C"/>
<path d="M123.838 28.8396C122.66 28.8396 121.773 28.5122 121.178 27.8575C120.595 27.2027 120.303 26.3397 120.303 25.2683V20.0005H123.446V24.9111C123.446 25.8992 123.892 26.3932 124.785 26.3932C125.19 26.3932 125.559 26.298 125.892 26.1075C126.225 25.917 126.499 25.6373 126.713 25.2683V20.0005H129.856V28.5717H126.821V27.6432C126.452 28.036 126.005 28.3336 125.481 28.536C124.958 28.7384 124.41 28.8396 123.838 28.8396Z" fill="#3D3A2C"/>
<path d="M131.465 20.0005H134.376V20.9291C134.733 20.5482 135.144 20.2565 135.608 20.0541C136.072 19.8398 136.566 19.7327 137.09 19.7327C137.733 19.7327 138.245 19.8279 138.626 20.0184C139.019 20.2089 139.334 20.4946 139.572 20.8755C139.929 20.5184 140.364 20.2386 140.876 20.0363C141.388 19.8339 141.906 19.7327 142.429 19.7327C143.56 19.7327 144.364 20.0244 144.84 20.6077C145.316 21.1791 145.554 22.0064 145.554 23.0897V28.5717H142.554V23.5362C142.554 23.06 142.465 22.7148 142.286 22.5005C142.108 22.2862 141.81 22.1791 141.394 22.1791C140.858 22.1791 140.423 22.3695 140.09 22.7505C140.102 22.9528 140.108 23.2624 140.108 23.679V28.5717H137.108V23.4112C137.108 22.9707 137.031 22.6552 136.876 22.4648C136.721 22.2743 136.447 22.1791 136.055 22.1791C135.447 22.1791 134.924 22.5183 134.483 23.1969V28.5717H131.465V20.0005Z" fill="#3D3A2C"/>
</svg>
