<svg width="19" height="19" viewBox="0 0 19 19" fill="none" xmlns="http://www.w3.org/2000/svg">
<path fill-rule="evenodd" clip-rule="evenodd" d="M2.28503 9.13996C2.28503 5.35409 5.35409 2.28503 9.13996 2.28503C12.9258 2.28503 15.9949 5.35409 15.9949 9.13996C15.9949 11.2131 15.0746 13.0713 13.6203 14.3282C13.2003 12.2378 11.354 10.6632 9.1399 10.6632C6.92582 10.6632 5.0795 12.2377 4.65955 14.3282C3.20528 13.0712 2.28503 11.213 2.28503 9.13996ZM6.09326 15.2823C7.01105 15.7384 8.04555 15.9949 9.13996 15.9949C10.2343 15.9949 11.2688 15.7384 12.1865 15.2824V15.2332C12.1865 13.5506 10.8225 12.1865 9.1399 12.1865C7.45729 12.1865 6.09326 13.5506 6.09326 15.2332V15.2823ZM9.13996 0.761719C4.51278 0.761719 0.761719 4.51278 0.761719 9.13996C0.761719 13.7671 4.51278 17.5182 9.13996 17.5182C13.7671 17.5182 17.5182 13.7671 17.5182 9.13996C17.5182 4.51278 13.7671 0.761719 9.13996 0.761719ZM9.1399 8.37824C8.29859 8.37824 7.61658 7.69623 7.61658 6.85492C7.61658 6.01362 8.29859 5.33161 9.1399 5.33161C9.9812 5.33161 10.6632 6.01362 10.6632 6.85492C10.6632 7.69623 9.9812 8.37824 9.1399 8.37824ZM6.09326 6.85492C6.09326 8.53753 7.45729 9.90155 9.1399 9.90155C10.8225 9.90155 12.1865 8.53753 12.1865 6.85492C12.1865 5.17231 10.8225 3.80829 9.1399 3.80829C7.45729 3.80829 6.09326 5.17231 6.09326 6.85492Z" fill="#F5841F"/>
</svg>
