<svg width="45" height="45" viewBox="0 0 45 45" fill="none" xmlns="http://www.w3.org/2000/svg">
<path d="M23.871 18.3007C23.871 14.6704 20.9008 11.7001 17.2705 11.7001C13.6402 11.7001 10.6699 14.6704 10.6699 18.3007C10.6699 21.931 13.6402 24.9012 17.2705 24.9012C20.9008 24.9012 23.871 21.931 23.871 18.3007ZM17.2705 20.5008C16.0604 20.5008 15.0703 19.5108 15.0703 18.3007C15.0703 17.0906 16.0604 16.1005 17.2705 16.1005C18.4806 16.1005 19.4706 17.0906 19.4706 18.3007C19.4706 19.5108 18.4806 20.5008 17.2705 20.5008ZM31.5717 24.9012C34.0139 24.9012 35.972 22.9431 35.972 20.5008C35.972 18.0586 34.0139 16.1005 31.5717 16.1005C29.1294 16.1005 27.1493 18.0586 27.1713 20.5008C27.1713 22.9431 29.1294 24.9012 31.5717 24.9012ZM22.7489 0.721191C10.6039 0.721191 0.74707 10.578 0.74707 22.723C0.74707 34.8681 10.6039 44.7249 22.7489 44.7249C34.8939 44.7249 44.7508 34.8681 44.7508 22.723C44.7508 10.578 34.8939 0.721191 22.7489 0.721191ZM9.21778 33.966C10.7139 32.7779 14.2122 31.5238 17.2705 31.5238C17.4245 31.5238 17.6005 31.5458 17.7765 31.5458C18.3045 30.1377 19.2506 28.7075 20.6367 27.4534C19.5267 27.2408 18.4005 27.123 17.2705 27.1014C14.4102 27.1014 9.81183 28.0915 6.86358 30.2477C5.76349 27.9595 5.14744 25.4073 5.14744 22.701C5.14744 12.9982 13.0461 5.09956 22.7489 5.09956C32.4517 5.09956 40.3504 12.9982 40.3504 22.701C40.3504 25.3413 39.7563 27.8495 38.7002 30.1157C36.5001 28.8175 33.5078 28.2015 31.5717 28.2015C28.2274 28.2015 21.6708 29.9836 21.6708 34.142V40.2585C19.274 40.1222 16.931 39.493 14.7884 38.4103C12.6457 37.3276 10.7493 35.8147 9.21778 33.966Z" fill="#8ECAE6"/>
</svg>
