<svg width="13" height="13" viewBox="0 0 13 13" fill="none" xmlns="http://www.w3.org/2000/svg">
<path fill-rule="evenodd" clip-rule="evenodd" d="M2.58958 1.016C2.98609 0.619171 3.62924 0.618991 4.02597 1.0156L5.90104 2.89014C6.29762 3.2866 6.2978 3.92946 5.90144 4.32614L5.23684 4.9913L7.39705 7.15117L8.06122 6.48644C8.45773 6.08961 9.10088 6.08943 9.49761 6.48604L11.1711 8.159C11.5676 8.55547 11.5678 9.19832 11.1715 9.59501L10.0645 10.7029C9.41537 11.3525 8.41616 11.4975 7.60923 11.0592C4.86857 9.57029 2.61725 7.31927 1.1277 4.57904C0.689304 3.77255 0.833517 2.77352 1.48243 2.12407L2.58958 1.016ZM5.18305 3.60834L3.30798 1.73381L2.20082 2.84187C1.86993 3.17304 1.79631 3.68262 2.01994 4.09403C3.41587 6.66202 5.52569 8.77155 8.09401 10.1668C8.50551 10.3903 9.01506 10.3164 9.34606 9.98513L10.4531 8.87721L8.77962 7.20425L7.3974 8.5876L3.80088 4.99165L5.18305 3.60834Z" fill="#F5841F"/>
</svg>
